<svg width="46" height="47" viewBox="0 0 46 47" fill="none" xmlns="http://www.w3.org/2000/svg">
<path d="M36.641 20.6553C32.8847 20.6553 30.0834 19.7322 28.237 17.8858C26.327 16.0395 25.372 13.5565 25.372 10.4368C25.372 7.44451 26.327 4.96151 28.237 2.98784C30.147 1.01418 32.5664 0.0273435 35.495 0.0273438C38.4237 0.027344 40.9067 1.26885 42.944 3.75185C44.9814 6.29851 46 9.99118 46 14.8298C46 20.3052 45.236 25.1757 43.708 29.4413C42.1164 33.7707 39.888 37.336 37.023 40.1373C34.0944 43.0023 30.5927 45.0078 26.518 46.1538C26.1997 46.2812 25.945 46.313 25.754 46.2493C25.563 46.2493 25.4357 46.1538 25.372 45.9628C25.3084 45.7718 25.3402 45.5808 25.4675 45.3898C25.5949 45.1988 25.7859 45.0715 26.0405 45.0078C29.8605 43.7982 32.9802 41.92 35.3995 39.3733C37.7552 36.8903 39.506 34.1527 40.652 31.1603C41.7344 28.2317 42.2755 25.494 42.2755 22.9473C42.2755 22.247 42.1164 21.674 41.798 21.2283C41.416 20.8463 40.8112 20.6553 39.9835 20.6553H36.641ZM11.429 20.7508C7.73637 20.7508 4.96687 19.8277 3.12054 17.9813C1.21054 16.135 0.255541 13.652 0.255542 10.5323C0.255542 7.54001 1.21054 5.057 3.12054 3.08334C5.03054 1.10968 7.41804 0.122846 10.283 0.122846C13.2117 0.122846 15.6947 1.36434 17.732 3.84734C19.7694 6.39401 20.788 10.0548 20.788 14.8298C20.788 20.3688 20.024 25.2712 18.496 29.5368C16.968 33.8662 14.7715 37.4315 11.9065 40.2328C8.97787 43.0978 5.4762 45.1033 1.40154 46.2493C1.01954 46.3767 0.733037 46.4085 0.542038 46.3448C0.351038 46.3448 0.223704 46.2493 0.160034 46.0583C0.160034 45.8673 0.223702 45.6763 0.351037 45.4853C0.414703 45.2943 0.605703 45.1352 0.924036 45.0078C4.68037 43.8618 7.7682 42.0155 10.1875 39.4688C12.6069 36.9222 14.3895 34.1527 15.5355 31.1603C16.6179 28.2317 17.159 25.5258 17.159 23.0428C17.159 22.3425 16.968 21.7695 16.586 21.3238C16.204 20.9418 15.5992 20.7508 14.7715 20.7508H11.429Z" fill="#157EFB"/>
</svg>
