<svg width="40" height="41" viewBox="0 0 40 41" fill="none" xmlns="http://www.w3.org/2000/svg">
<rect y="0.201172" width="40" height="40" rx="20" fill="white"/>
<path d="M20 24.2012C21.0609 24.2012 22.0783 23.7797 22.8284 23.0296C23.5786 22.2795 24 21.262 24 20.2012C24 19.1403 23.5786 18.1229 22.8284 17.3727C22.0783 16.6226 21.0609 16.2012 20 16.2012C18.9391 16.2012 17.9217 16.6226 17.1716 17.3727C16.4214 18.1229 16 19.1403 16 20.2012C16 21.262 16.4214 22.2795 17.1716 23.0296C17.9217 23.7797 18.9391 24.2012 20 24.2012V24.2012Z" stroke="#0A58CA" stroke-linecap="round" stroke-linejoin="round"/>
<path d="M11 24.2012V16.2012C11 14.8751 11.5268 13.6033 12.4645 12.6656C13.4021 11.728 14.6739 11.2012 16 11.2012H24C25.3261 11.2012 26.5979 11.728 27.5355 12.6656C28.4732 13.6033 29 14.8751 29 16.2012V24.2012C29 25.5273 28.4732 26.799 27.5355 27.7367C26.5979 28.6744 25.3261 29.2012 24 29.2012H16C14.6739 29.2012 13.4021 28.6744 12.4645 27.7367C11.5268 26.799 11 25.5273 11 24.2012Z" stroke="#0A58CA"/>
<path d="M25.5 14.7112L25.51 14.7002" stroke="#0A58CA" stroke-linecap="round" stroke-linejoin="round"/>
</svg>
