<svg width="40" height="41" viewBox="0 0 40 41" fill="none" xmlns="http://www.w3.org/2000/svg">
<rect y="0.201172" width="40" height="40" rx="20" fill="white"/>
<path d="M31 11.2112C31 11.2112 28.982 12.4032 27.86 12.7412C27.2577 12.0487 26.4573 11.5579 25.567 11.3352C24.6767 11.1124 23.7395 11.1684 22.8821 11.4957C22.0247 11.8229 21.2884 12.4056 20.773 13.1649C20.2575 13.9243 19.9877 14.8236 20 15.7412V16.7412C18.2426 16.7868 16.5013 16.397 14.931 15.6067C13.3607 14.8163 12.0103 13.6499 11 12.2112C11 12.2112 7 21.2112 16 25.2112C13.9405 26.6092 11.4872 27.3102 9 27.2112C18 32.2112 29 27.2112 29 15.7112C29 15.4332 28.972 15.1552 28.92 14.8812C29.94 13.8752 31 11.2112 31 11.2112Z" stroke="#0A58CA" stroke-linecap="round" stroke-linejoin="round"/>
</svg>
