<svg width="40" height="41" viewBox="0 0 40 41" fill="none" xmlns="http://www.w3.org/2000/svg">
<rect y="0.201172" width="40" height="40" rx="20" fill="white"/>
<path d="M22 20.2012L18.5 22.2012V18.2012L22 20.2012Z" fill="#0A58CA" stroke="#0A58CA" stroke-linecap="round" stroke-linejoin="round"/>
<path d="M10 20.9081V19.4931C10 16.5981 10 15.1501 10.905 14.2191C11.811 13.2871 13.237 13.2471 16.088 13.1661C17.438 13.1281 18.818 13.1011 20 13.1011C21.181 13.1011 22.561 13.1281 23.912 13.1661C26.763 13.2471 28.189 13.2871 29.094 14.2191C30 15.1501 30 16.5991 30 19.4931V20.9081C30 23.8041 30 25.2511 29.095 26.1831C28.189 27.1141 26.764 27.1551 23.912 27.2351C22.562 27.2741 21.182 27.3011 20 27.3011C18.6958 27.2972 17.3916 27.2752 16.088 27.2351C13.237 27.1551 11.811 27.1151 10.905 26.1831C10 25.2511 10 23.8031 10 20.9091V20.9081Z" stroke="#0A58CA"/>
</svg>
